<svg xmlns="http://www.w3.org/2000/svg" viewBox="0 0 1481.23 1760.05"><defs><style>.cls-1{font-size:516.86px;font-family:TimesNewRomanPSMT, Times New Roman;}.cls-2{font-size:137.88px;font-family:AndaleMono;}.cls-3{font-size:82px;fill:#231f20;font-family:FreeSans;}.cls-4{letter-spacing:-0.01em;}.cls-5{letter-spacing:-0.02em;}.cls-6{letter-spacing:-0.01em;}.cls-7{letter-spacing:-0.02em;}.cls-8{letter-spacing:0em;}.cls-9{letter-spacing:-0.02em;}</style></defs><g id="Layer_2" data-name="Layer 2"><g id="Layer_1-2" data-name="Layer 1"><path d="M253.24,361C193.37,625.18,359,887.88,623.18,947.76c252.1,57.13,502.85-91.09,577.28-334.34q-2.89,18.78-7.12,37.63c-65.67,289.74-353.79,471.39-643.53,405.73S78.41,703,144.08,413.24C194.52,190.65,376.26,31.88,589.16,0,426.14,49.63,293.6,182.91,253.24,361Z"/><text class="cls-1" transform="translate(5.09 1557.39)">Luttos</text><text class="cls-2" transform="translate(1323.46 1330.89)">®</text><text class="cls-3" transform="translate(0 1721.59)"><tspan class="cls-4">Re</tspan><tspan x="103.16" y="0">s</tspan><tspan class="cls-4" x="144.16" y="0">ear</tspan><tspan x="260.19" y="0">ch, </tspan><tspan class="cls-4" x="392.37" y="0">d</tspan><tspan class="cls-5" x="437.14" y="0">ev</tspan><tspan x="520.46" y="0">el</tspan><tspan class="cls-4" x="584.25" y="0">op</tspan><tspan class="cls-6" x="673.8" y="0">m</tspan><tspan class="cls-7" x="740.87" y="0">e</tspan><tspan class="cls-8" x="784.82" y="0">nt &amp; i</tspan><tspan class="cls-9" x="971.7" y="0">nn</tspan><tspan class="cls-7" x="1058.79" y="0">ov</tspan><tspan class="cls-4" x="1142.1" y="0">a</tspan><tspan class="cls-8" x="1186.87" y="0">ti</tspan><tspan class="cls-5" x="1227.87" y="0">o</tspan><tspan x="1271.82" y="0">n</tspan></text></g></g></svg>